<svg width="376" height="376" viewBox="0 0 376 376" fill="none" xmlns="http://www.w3.org/2000/svg">
<path d="M303.57 202.131C304.025 202.477 304.556 202.642 305.082 202.642C305.837 202.642 306.586 202.301 307.076 201.653C307.912 200.552 307.7 198.983 306.601 198.147L294.837 189.206V171.068L303.57 177.706C304.025 178.049 304.556 178.216 305.082 178.216C305.837 178.216 306.586 177.876 307.076 177.228C307.912 176.126 307.7 174.557 306.601 173.721L293.849 164.032C293.741 163.95 293.616 163.912 293.498 163.85C293.406 163.797 293.321 163.742 293.22 163.702C292.647 163.484 292.022 163.484 291.446 163.702C291.346 163.742 291.261 163.8 291.168 163.85C291.05 163.91 290.925 163.952 290.818 164.032L278.065 173.721C276.967 174.557 276.754 176.126 277.59 177.228C278.426 178.329 279.99 178.542 281.096 177.706L289.829 171.068V189.206L278.065 198.147C276.967 198.983 276.754 200.552 277.59 201.653C278.426 202.752 279.99 202.965 281.096 202.129L289.829 195.494V213.63L278.065 222.567C276.967 223.403 276.754 224.973 277.59 226.074C278.426 227.173 279.99 227.385 281.096 226.549L289.829 219.914V262.15C289.829 263.534 290.948 264.653 292.332 264.653C293.716 264.653 294.835 263.534 294.835 262.15V219.917L303.567 226.552C304.023 226.897 304.553 227.062 305.079 227.062C305.835 227.062 306.583 226.722 307.074 226.074C307.91 224.973 307.697 223.403 306.598 222.567L294.835 213.63V195.494L303.57 202.131Z" fill="#AA9582"/>
<path d="M258.801 213.63V195.491L267.536 202.126C267.989 202.472 268.519 202.637 269.048 202.637C269.803 202.637 270.552 202.296 271.042 201.646C271.881 200.547 271.666 198.978 270.564 198.142L258.803 189.206V171.065L267.536 177.703C267.991 178.046 268.522 178.214 269.048 178.214C269.803 178.214 270.552 177.873 271.042 177.225C271.878 176.124 271.666 174.555 270.567 173.719L258.803 164.781V146.642L267.536 153.28C267.991 153.623 268.522 153.791 269.048 153.791C269.803 153.791 270.552 153.45 271.042 152.802C271.878 151.701 271.666 150.131 270.567 149.295L257.815 139.607C257.707 139.524 257.582 139.487 257.464 139.424C257.372 139.372 257.287 139.316 257.186 139.276C256.613 139.056 255.988 139.056 255.412 139.276C255.312 139.314 255.227 139.372 255.134 139.424C255.016 139.484 254.891 139.527 254.784 139.607L242.031 149.295C240.933 150.131 240.72 151.701 241.556 152.802C242.392 153.903 243.959 154.116 245.062 153.28L253.795 146.642V164.781L242.031 173.719C240.933 174.555 240.72 176.124 241.556 177.225C242.392 178.326 243.959 178.539 245.062 177.703L253.795 171.065V189.206L242.034 198.142C240.933 198.978 240.717 200.547 241.556 201.646C242.392 202.749 243.961 202.962 245.06 202.124L253.795 195.489V213.625L242.031 222.562C240.933 223.398 240.72 224.968 241.556 226.069C242.392 227.168 243.959 227.383 245.062 226.544L253.795 219.909V262.148C253.795 263.532 254.914 264.651 256.298 264.651C257.682 264.651 258.801 263.532 258.801 262.148V219.914L267.533 226.549C267.989 226.895 268.519 227.06 269.045 227.06C269.801 227.06 270.549 226.72 271.04 226.071C271.876 224.97 271.663 223.401 270.564 222.565L258.801 213.63Z" fill="#AA9582"/>
<path d="M95.4903 177.706C95.9434 178.049 96.4765 178.216 97.0021 178.216C97.7579 178.216 98.5063 177.876 98.9969 177.228C99.8328 176.126 99.6201 174.557 98.5188 173.721L86.7553 164.783V146.645L95.4903 153.283C95.9434 153.625 96.4765 153.793 97.0021 153.793C97.7579 153.793 98.5063 153.453 98.9969 152.804C99.8328 151.703 99.6201 150.134 98.5188 149.298L85.7666 139.609C85.659 139.527 85.5339 139.487 85.4162 139.427C85.3236 139.374 85.241 139.319 85.1409 139.279C84.5678 139.059 83.9395 139.059 83.3664 139.279C83.2638 139.316 83.1812 139.374 83.0886 139.427C82.9734 139.487 82.8483 139.529 82.7407 139.609L69.9885 149.298C68.8872 150.134 68.6745 151.703 69.5104 152.804C70.3439 153.901 71.9157 154.118 73.017 153.283L81.752 146.645V164.783L69.9885 173.721C68.8872 174.557 68.6745 176.126 69.5104 177.228C70.3439 178.326 71.9157 178.544 73.017 177.706L81.752 171.068V189.206L69.9885 198.147C68.8872 198.983 68.6745 200.552 69.5104 201.653C70.3439 202.749 71.9157 202.97 73.017 202.129L81.752 195.494V213.627L69.9885 222.565C68.8872 223.401 68.6745 224.97 69.5104 226.071C70.3439 227.168 71.9157 227.388 73.017 226.547L81.752 219.912V262.15C81.752 263.534 82.8733 264.653 84.2549 264.653C85.6365 264.653 86.7578 263.534 86.7578 262.15V219.914L95.4928 226.549C95.9459 226.895 96.479 227.06 97.0046 227.06C97.7604 227.06 98.5088 226.72 98.9994 226.071C99.8353 224.97 99.6226 223.401 98.5213 222.565L86.7578 213.627V195.494L95.4928 202.129C95.9459 202.474 96.479 202.639 97.0046 202.639C97.7604 202.639 98.5088 202.299 98.9994 201.651C99.8353 200.549 99.6226 198.98 98.5213 198.144L86.7578 189.204V171.065L95.4903 177.706Z" fill="#AA9582"/>
<path d="M101.775 187.922C101.044 187.922 100.321 187.605 99.8279 186.994C98.9594 185.918 99.1271 184.341 100.201 183.472L151.51 141.992C152.193 141.441 153.114 141.291 153.935 141.584L195.218 156.536L254.811 112.491C255.7 111.835 256.916 111.835 257.8 112.501L306.819 149.213C307.923 150.041 308.15 151.611 307.322 152.717C306.496 153.821 304.927 154.051 303.818 153.22L256.288 117.626L197.115 161.362C196.439 161.857 195.563 161.988 194.772 161.702L153.557 146.775L103.347 187.367C102.884 187.74 102.328 187.922 101.775 187.922Z" fill="#AA9582"/>
<path d="M217.22 228.387C216.755 228.387 216.284 228.256 215.866 227.986C214.702 227.238 214.37 225.688 215.12 224.527L219.248 218.13L215.12 211.737C214.585 210.909 214.585 209.848 215.12 209.022L219.25 202.622L215.118 196.209C214.587 195.384 214.587 194.322 215.118 193.496L220.124 185.727C220.875 184.564 222.419 184.233 223.585 184.979C224.747 185.73 225.082 187.277 224.334 188.441L220.201 194.853L224.334 201.265C224.867 202.091 224.864 203.152 224.331 203.978L220.204 210.378L224.331 216.771C224.867 217.599 224.867 218.66 224.331 219.486L219.325 227.24C218.845 227.984 218.041 228.387 217.22 228.387Z" fill="#AA9582"/>
<path d="M232.13 260.594L222.724 248.798L227.355 242.788C228.198 241.692 227.995 240.123 226.899 239.279C225.803 238.431 224.229 238.636 223.39 239.735L222.356 241.076V239.004C222.356 237.62 221.238 236.501 219.854 236.501C218.469 236.501 217.351 237.62 217.351 239.004V242.057L215.473 239.705C214.61 238.623 213.033 238.443 211.957 239.307C210.873 240.17 210.698 241.744 211.559 242.823L216.367 248.855L207.299 260.629C206.456 261.725 206.658 263.294 207.755 264.138C208.21 264.491 208.746 264.658 209.279 264.658C210.03 264.658 210.773 264.323 211.264 263.682L217.353 255.778V262.155C217.353 263.539 218.472 264.658 219.856 264.658C221.24 264.658 222.359 263.539 222.359 262.155V256.366L228.218 263.717C228.714 264.338 229.442 264.661 230.178 264.661C230.724 264.661 231.274 264.483 231.735 264.115C232.813 263.249 232.991 261.675 232.13 260.594Z" fill="#AA9582"/>
<path d="M198.018 261.415C198.016 261.412 198.016 261.412 198.016 261.41C197.933 261.142 197.806 260.891 197.643 260.671L168.968 220.658L168.965 220.655C168.6 220.145 168.077 219.814 167.508 219.679H167.506C167.403 219.654 167.298 219.636 167.19 219.626C167.095 219.619 167.01 219.614 166.903 219.614H123.56C123.403 219.614 123.247 219.641 123.092 219.669C123.055 219.676 123.02 219.674 122.985 219.681C122.879 219.706 122.784 219.752 122.684 219.789C122.632 219.809 122.582 219.824 122.529 219.847C122.409 219.899 122.296 219.969 122.184 220.042C122.159 220.062 122.126 220.062 122.101 220.082C122.084 220.097 122.074 220.117 122.056 220.132C121.981 220.187 121.911 220.247 121.843 220.31C121.803 220.35 121.771 220.387 121.736 220.43C121.666 220.505 121.588 220.572 121.528 220.658L92.8324 260.696C92.2867 261.46 92.2117 262.461 92.6397 263.297C93.0676 264.13 93.9286 264.656 94.8672 264.656H195.598C195.608 264.656 195.618 264.656 195.628 264.656C195.876 264.656 196.121 264.618 196.362 264.546C196.674 264.451 196.962 264.293 197.21 264.09C197.483 263.867 197.698 263.597 197.851 263.299C198.008 262.996 198.106 262.656 198.124 262.296C198.129 262.245 198.129 262.198 198.129 262.148C198.129 261.903 198.091 261.655 198.018 261.415ZM121.057 229.906V259.65H99.7403L121.057 229.906ZM126.063 229.906L147.38 259.65H126.063V229.906ZM153.54 259.65L128.433 224.62H165.646L190.753 259.65H153.54Z" fill="#AA9582"/>
<mask id="mask0_108_145" style="mask-type:alpha" maskUnits="userSpaceOnUse" x="0" y="24" width="376" height="327">
<path fill-rule="evenodd" clip-rule="evenodd" d="M376 24H0V351H376V24ZM308 111H69V264H308V111Z" fill="#D9D9D9"/>
</mask>
<g mask="url(#mask0_108_145)">
<path d="M72.9727 50.5938V72.1738L45.2754 76.9316V272.342H132.785L136.693 233.26H162.352V298H-15.8965V276.59L11.8008 271.832V76.9316L-15.8965 72.1738V50.5938H72.9727ZM301.348 301.568C278.465 301.568 258.641 296.244 241.875 285.596C225.109 275.061 212.195 260.391 203.133 241.586C194.07 222.781 189.539 201.031 189.539 176.336V172.258C189.539 147.336 194.127 125.473 203.303 106.668C212.365 87.9766 224.826 73.3633 240.686 62.8281C256.545 52.293 274.557 47.0254 294.721 47.0254C313.979 47.0254 330.291 49.2344 343.658 53.6523C357.139 58.0703 368.637 64.0176 378.152 71.4941V121.451H350.625L347.057 85.5977C335.955 78.2344 319.643 74.5527 298.119 74.5527C284.072 74.5527 271.328 78.6309 259.887 86.7871C248.559 94.9434 239.609 106.328 233.039 120.941C226.469 135.441 223.184 152.434 223.184 171.918V176.336C223.184 196.047 226.242 213.209 232.359 227.822C238.363 242.549 247.199 253.99 258.867 262.146C270.535 270.189 284.695 274.211 301.348 274.211C312.676 274.211 322.248 273.248 330.064 271.322C337.881 269.283 344.791 266.678 350.795 263.506V205.393L303.387 203.693V179.055H384.27V274.891C377.133 281.574 366.881 287.691 353.514 293.242C340.26 298.793 322.871 301.568 301.348 301.568Z" fill="white"/>
<path d="M9.088 334.04H7.49692L1.7465 319.017H1.65714C1.76399 320.208 1.81839 321.62 1.81839 323.256V334.04H0V317.094H2.96652L8.33229 331.073H8.42747L13.8418 317.094H16.785V334.04H14.8151V323.12C14.8151 321.869 14.8695 320.509 14.9764 319.04H14.8812L9.088 334.04ZM23.0677 321.333V334.04H21.1445V321.333H23.0677ZM20.9832 317.89C20.9832 317.449 21.0901 317.127 21.3057 316.923C21.5214 316.721 21.7914 316.62 22.1178 316.618C22.4286 316.618 22.6947 316.721 22.9162 316.927C23.1416 317.136 23.2542 317.457 23.2523 317.89C23.2523 318.323 23.1396 318.646 22.9162 318.86C22.6947 319.071 22.4286 319.178 22.1178 319.178C21.7914 319.178 21.5214 319.071 21.3057 318.86C21.0901 318.648 20.9832 318.325 20.9832 317.89ZM32.5171 334.273C30.6404 334.273 29.1582 333.7 28.0722 332.554C26.9862 331.412 26.4442 329.824 26.4442 327.792C26.4442 325.745 26.9473 324.117 27.9537 322.91C28.9639 321.704 30.3179 321.102 32.0198 321.102C33.6128 321.102 34.8717 321.626 35.7983 322.673C36.725 323.72 37.1893 325.104 37.1893 326.819V328.033H28.4335C28.4743 329.527 28.8531 330.662 29.5681 331.433C30.281 332.206 31.2874 332.591 32.589 332.593C33.9566 332.593 35.3088 332.307 36.6434 331.732V333.447C35.9635 333.743 35.3204 333.955 34.7162 334.083C34.1082 334.209 33.3758 334.273 32.5171 334.273ZM31.9945 322.716C30.9746 322.716 30.1606 323.048 29.5545 323.713C28.9464 324.377 28.5889 325.298 28.4821 326.471H35.1242C35.1242 325.255 34.8542 324.326 34.3122 323.683C33.7701 323.038 32.9989 322.714 31.9945 322.716V322.716ZM38.928 339.744C38.1937 339.744 37.5992 339.647 37.1427 339.454V337.892C37.675 338.044 38.1995 338.12 38.7182 338.12C39.3205 338.12 39.7634 337.957 40.049 337.63C40.3307 337.302 40.4725 336.799 40.4705 336.125V321.333H42.3938V335.989C42.3938 338.493 41.2379 339.744 38.928 339.744V339.744ZM40.3054 317.89C40.3054 317.449 40.4142 317.127 40.6337 316.923C40.8494 316.721 41.1194 316.62 41.4438 316.618C41.7508 316.618 42.017 316.721 42.2423 316.927C42.4677 317.136 42.5803 317.457 42.5803 317.89C42.5803 318.323 42.4677 318.646 42.2423 318.86C42.017 319.071 41.7508 319.178 41.4438 319.178C41.1175 319.178 40.8474 319.071 40.6337 318.86C40.4162 318.648 40.3054 318.325 40.3054 317.89ZM54.6698 330.574C54.6698 331.757 54.2288 332.67 53.3488 333.31C52.4687 333.953 51.2332 334.273 49.6401 334.273C47.9558 334.273 46.6425 334.005 45.7003 333.471V331.685C46.3123 331.996 46.967 332.239 47.6664 332.416C48.3657 332.593 49.0399 332.682 49.6887 332.682C50.6931 332.682 51.4644 332.523 52.0064 332.202C52.5484 331.882 52.8184 331.394 52.8184 330.735C52.8184 330.242 52.6028 329.818 52.1715 329.469C51.7441 329.117 50.9087 328.701 49.6654 328.22C48.4823 327.779 47.6411 327.396 47.1438 327.066C46.6445 326.739 46.2715 326.368 46.0267 325.949C45.7839 325.531 45.6615 325.032 45.6615 324.453C45.6615 323.417 46.085 322.601 46.9301 322.003C47.7713 321.401 48.9272 321.102 50.3959 321.102C51.7635 321.102 53.1001 321.379 54.4037 321.937L53.7198 323.503C52.4435 322.976 51.2895 322.714 50.254 322.716C49.3429 322.716 48.6552 322.858 48.1928 323.143C47.7266 323.429 47.4954 323.823 47.4954 324.325C47.4954 324.666 47.5828 324.956 47.7557 325.195C47.9306 325.436 48.2103 325.663 48.5969 325.879C48.9835 326.096 49.7256 326.411 50.8233 326.819C52.3308 327.367 53.3488 327.919 53.8772 328.476C54.4056 329.034 54.6698 329.733 54.6698 330.574V330.574ZM59.6082 327.536H59.7034C60.0356 327.064 60.5426 326.446 61.2226 325.682L65.3256 321.333H67.6102L62.462 326.747L67.9696 334.04H65.6384L61.1507 328.033L59.7034 329.288V334.04H57.8034V316H59.7034V325.564C59.7034 325.991 59.6723 326.648 59.6082 327.536V327.536ZM72.1872 321.333V334.04H70.264V321.333H72.1872ZM70.1027 317.89C70.1027 317.449 70.2096 317.127 70.4252 316.923C70.6428 316.721 70.9148 316.62 71.2373 316.618C71.5481 316.618 71.8143 316.721 72.0396 316.927C72.2611 317.136 72.3718 317.457 72.3718 317.89C72.3718 318.323 72.2611 318.646 72.0396 318.86C71.8143 319.071 71.5481 319.178 71.2373 319.178C70.9148 319.178 70.6428 319.071 70.4252 318.86C70.2096 318.648 70.1027 318.325 70.1027 317.89ZM81.6366 334.273C79.7599 334.273 78.2776 333.7 77.1917 332.554C76.1057 331.412 75.5637 329.824 75.5637 327.792C75.5637 325.745 76.0668 324.117 77.0732 322.91C78.0834 321.704 79.4375 321.102 81.1373 321.102C82.7303 321.102 83.9892 321.626 84.9178 322.673C85.8445 323.72 86.3088 325.104 86.3088 326.819V328.033H77.5569C77.5958 329.527 77.9707 330.662 78.6876 331.433C79.4025 332.206 80.4088 332.591 81.7085 332.593C83.0761 332.593 84.4283 332.307 85.7629 331.732V333.447C85.083 333.743 84.4399 333.955 83.8357 334.083C83.2277 334.209 82.4953 334.273 81.6366 334.273ZM81.114 322.716C80.0941 322.716 79.2801 323.048 78.674 323.713C78.0698 324.377 77.7123 325.298 77.5996 326.471H84.2437C84.2437 325.255 83.9737 324.326 83.4355 323.683C82.8935 323.038 82.1203 322.714 81.114 322.716ZM95.5969 321.333H99.9894V322.555L97.6348 322.829C97.8524 323.101 98.0467 323.456 98.2137 323.893C98.3847 324.326 98.4702 324.82 98.4702 325.37C98.4702 326.613 98.0447 327.606 97.1938 328.348C96.3449 329.092 95.1792 329.463 93.6931 329.463C93.3162 329.463 92.9626 329.432 92.6304 329.368C91.8106 329.801 91.4006 330.347 91.4006 331.002C91.4006 331.349 91.5425 331.608 91.828 331.775C92.1136 331.94 92.6032 332.022 93.2987 332.023H95.5503C96.9238 332.023 97.9806 332.313 98.7227 332.892C99.4609 333.471 99.8301 334.314 99.8281 335.423C99.8281 336.83 99.2628 337.9 98.1341 338.636C97.0073 339.375 95.3618 339.744 93.1938 339.744C91.5308 339.744 90.2506 339.435 89.353 338.817C88.4516 338.199 87.999 337.325 87.999 336.196C87.999 335.423 88.2476 334.757 88.745 334.193C89.2384 333.63 89.9339 333.247 90.8295 333.043C90.507 332.898 90.235 332.67 90.0136 332.36C89.7921 332.049 89.6814 331.689 89.6814 331.281C89.6814 330.815 89.8057 330.411 90.0563 330.067C90.303 329.719 90.6935 329.381 91.2239 329.055C90.5692 328.785 90.033 328.327 89.6192 327.678C89.2054 327.029 88.9975 326.287 88.9975 325.451C88.9975 324.058 89.4152 322.986 90.2506 322.23C91.0859 321.477 92.2691 321.1 93.798 321.102C94.4624 321.102 95.0627 321.179 95.5969 321.333V321.333ZM89.8562 336.173C89.8562 336.863 90.1457 337.385 90.7246 337.741C91.3035 338.096 92.135 338.273 93.219 338.271C94.8334 338.271 96.0301 338.03 96.8092 337.55C97.5843 337.067 97.9728 336.41 97.9709 335.584C97.9709 334.895 97.7592 334.417 97.3356 334.151C96.9082 333.885 96.1078 333.753 94.9325 333.751H92.6304C91.7562 333.751 91.0762 333.96 90.5886 334.378C90.101 334.796 89.8581 335.394 89.8562 336.173V336.173ZM90.9014 325.403C90.9014 326.293 91.152 326.965 91.6512 327.421C92.1544 327.878 92.8538 328.105 93.7494 328.105C95.6299 328.105 96.5702 327.194 96.5702 325.37C96.5702 323.46 95.6183 322.506 93.7164 322.506C92.8111 322.506 92.1156 322.749 91.6318 323.239C91.1442 323.722 90.9014 324.445 90.9014 325.403V325.403ZM113.567 327.678C113.567 329.749 113.044 331.365 111.999 332.527C110.958 333.692 109.516 334.273 107.679 334.273C106.542 334.273 105.532 334.005 104.648 333.471C103.768 332.939 103.088 332.175 102.612 331.176C102.13 330.18 101.889 329.012 101.889 327.678C101.889 325.605 102.406 323.99 103.442 322.834C104.479 321.679 105.919 321.102 107.758 321.102C109.534 321.102 110.946 321.694 111.993 322.877C113.041 324.058 113.565 325.659 113.567 327.678V327.678ZM103.885 327.678C103.885 329.298 104.209 330.535 104.858 331.386C105.507 332.235 106.461 332.659 107.721 332.659C108.982 332.659 109.938 332.235 110.593 331.39C111.245 330.545 111.572 329.308 111.572 327.678C111.572 326.059 111.245 324.834 110.593 323.998C109.938 323.159 108.972 322.739 107.696 322.739C106.435 322.739 105.487 323.153 104.848 323.979C104.205 324.804 103.885 326.038 103.885 327.678V327.678ZM131.23 332.544V334.04H122.018V332.731L128.947 322.829H122.445V321.333H131.059V322.829L124.217 332.544H131.23ZM146.873 334.04H144.588L142.257 326.586C142.111 326.129 141.837 325.094 141.435 323.479H141.34C141.033 324.832 140.763 325.875 140.528 326.609L138.131 334.04H135.904L132.437 321.333H134.455C135.275 324.527 135.898 326.959 136.326 328.628C136.757 330.296 137.002 331.419 137.062 331.998H137.157C137.243 331.557 137.381 330.988 137.571 330.289C137.758 329.589 137.921 329.036 138.059 328.628L140.39 321.333H142.48L144.749 328.628C145.183 329.956 145.478 331.074 145.633 331.975H145.723C145.754 331.699 145.837 331.27 145.975 330.689C146.107 330.11 146.914 326.992 148.392 321.333H150.387L146.873 334.04ZM154.603 321.333V334.04H152.68V321.333H154.603ZM152.518 317.89C152.518 317.449 152.625 317.127 152.841 316.923C153.058 316.721 153.33 316.62 153.653 316.618C153.964 316.618 154.23 316.721 154.455 316.927C154.677 317.136 154.787 317.457 154.789 317.89C154.789 318.323 154.679 318.646 154.455 318.86C154.23 319.071 153.964 319.178 153.653 319.178C153.33 319.178 153.058 319.071 152.841 318.86C152.625 318.648 152.518 318.325 152.518 317.89ZM164.052 334.273C162.176 334.273 160.693 333.7 159.609 332.554C158.523 331.412 157.981 329.824 157.979 327.792C157.979 325.745 158.482 324.117 159.489 322.91C160.499 321.704 161.853 321.102 163.555 321.102C165.148 321.102 166.407 321.626 167.333 322.673C168.26 323.72 168.724 325.104 168.726 326.819V328.033H159.974C160.013 329.527 160.388 330.662 161.103 331.433C161.818 332.206 162.824 332.591 164.124 332.593C165.492 332.593 166.844 332.307 168.179 331.732V333.447C167.499 333.743 166.856 333.955 166.251 334.083C165.643 334.209 164.911 334.273 164.052 334.273V334.273ZM163.532 322.716C162.512 322.716 161.698 323.048 161.09 323.713C160.485 324.377 160.128 325.298 160.017 326.471H166.659C166.659 325.255 166.389 324.326 165.847 323.683C165.309 323.038 164.536 322.714 163.532 322.716ZM177.805 321.102C178.368 321.102 178.873 321.148 179.32 321.243L179.054 323.029C178.527 322.912 178.065 322.854 177.663 322.854C176.637 322.854 175.759 323.272 175.027 324.107C174.296 324.94 173.929 325.978 173.931 327.221V334.04H172.008V321.333H173.593L173.816 323.689H173.906C174.378 322.864 174.945 322.224 175.611 321.776C176.276 321.327 177.008 321.102 177.805 321.102V321.102ZM189.824 332.544V334.04H180.606V332.731L187.54 322.829H181.039V321.333H189.653V322.829L182.809 332.544H189.824ZM202.046 334.04H200.618L200.237 332.231H200.142C199.509 333.03 198.877 333.568 198.248 333.852C197.618 334.133 196.832 334.275 195.887 334.273C194.627 334.273 193.64 333.949 192.925 333.3C192.212 332.651 191.856 331.726 191.856 330.528C191.856 327.963 193.908 326.619 198.011 326.495L200.165 326.425V325.636C200.165 324.639 199.952 323.903 199.524 323.427C199.093 322.953 198.407 322.714 197.463 322.716C196.406 322.716 195.207 323.04 193.869 323.689L193.28 322.217C193.908 321.875 194.592 321.607 195.336 321.414C196.084 321.222 196.832 321.125 197.583 321.125C199.097 321.125 200.22 321.463 200.95 322.137C201.681 322.807 202.048 323.885 202.046 325.37V334.04ZM196.272 332.682C197.469 332.682 198.409 332.354 199.093 331.699C199.777 331.04 200.119 330.122 200.119 328.94V327.792L198.195 327.872C196.666 327.926 195.563 328.163 194.885 328.585C194.207 329.006 193.869 329.661 193.869 330.551C193.869 331.246 194.079 331.777 194.5 332.142C194.922 332.503 195.512 332.684 196.272 332.682V332.682ZM214.102 316V334.04H212.175V316H214.102ZM223.548 334.273C221.671 334.273 220.189 333.7 219.103 332.554C218.017 331.412 217.475 329.824 217.475 327.792C217.475 325.745 217.98 324.117 218.99 322.91C219.996 321.704 221.35 321.102 223.048 321.102C224.641 321.102 225.9 321.626 226.829 322.673C227.756 323.72 228.22 325.104 228.22 326.819V328.033H219.468C219.507 329.527 219.882 330.662 220.599 331.433C221.314 332.206 222.32 332.591 223.62 332.593C224.987 332.593 226.341 332.307 227.68 331.732V333.447C227 333.743 226.355 333.955 225.747 334.083C225.139 334.209 224.406 334.273 223.548 334.273ZM223.025 322.716C222.005 322.716 221.193 323.048 220.589 323.713C219.981 324.377 219.623 325.298 219.517 326.471H226.159C226.159 325.255 225.889 324.326 225.347 323.683C224.805 323.038 224.031 322.714 223.025 322.716V322.716ZM239.697 330.574C239.697 331.757 239.256 332.67 238.378 333.31C237.498 333.953 236.263 334.273 234.67 334.273C232.982 334.273 231.668 334.005 230.728 333.471V331.685C231.336 331.996 231.989 332.239 232.688 332.416C233.388 332.593 234.062 332.682 234.712 332.682C235.719 332.682 236.494 332.523 237.034 332.202C237.576 331.882 237.846 331.394 237.846 330.735C237.846 330.242 237.63 329.818 237.199 329.469C236.772 329.117 235.936 328.701 234.693 328.22C233.51 327.779 232.669 327.396 232.171 327.066C231.672 326.739 231.299 326.368 231.054 325.949C230.812 325.531 230.689 325.032 230.689 324.453C230.689 323.417 231.111 322.601 231.952 322.003C232.793 321.401 233.949 321.102 235.42 321.102C236.787 321.102 238.124 321.379 239.431 321.937L238.747 323.503C237.471 322.976 236.317 322.714 235.282 322.716C234.371 322.716 233.681 322.858 233.217 323.143C232.754 323.429 232.523 323.823 232.523 324.325C232.523 324.666 232.61 324.956 232.783 325.195C232.958 325.436 233.238 325.663 233.625 325.879C234.011 326.096 234.753 326.411 235.851 326.819C237.358 327.367 238.376 327.919 238.905 328.476C239.433 329.034 239.697 329.733 239.697 330.574V330.574ZM253.45 334.04H251.521V325.82C251.521 324.785 251.286 324.014 250.819 323.503C250.347 322.994 249.609 322.737 248.601 322.739C247.272 322.739 246.299 323.099 245.681 323.817C245.063 324.536 244.754 325.721 244.754 327.375V334.04H242.827V321.333H244.395L244.708 323.071H244.797C245.193 322.448 245.747 321.964 246.46 321.618C247.169 321.273 247.96 321.102 248.834 321.102C250.363 321.102 251.515 321.473 252.29 322.213C253.063 322.951 253.448 324.13 253.45 325.75V334.04ZM262.771 334.273C260.891 334.273 259.408 333.7 258.322 332.554C257.236 331.412 256.694 329.824 256.692 327.792C256.692 325.745 257.197 324.117 258.208 322.91C259.218 321.704 260.572 321.102 262.272 321.102C263.865 321.102 265.124 321.626 266.052 322.673C266.979 323.72 267.443 325.104 267.443 326.819V328.033H258.687C258.726 329.527 259.101 330.662 259.818 331.433C260.533 332.206 261.539 332.591 262.837 332.593C264.205 332.593 265.559 332.307 266.897 331.732V333.447C266.217 333.743 265.572 333.955 264.964 334.083C264.36 334.209 263.628 334.273 262.771 334.273V334.273ZM262.248 322.716C261.229 322.716 260.415 323.048 259.808 323.713C259.2 324.377 258.843 325.298 258.734 326.471H265.378C265.378 325.255 265.108 324.326 264.566 323.683C264.024 323.038 263.253 322.714 262.248 322.716V322.716ZM282.8 334.273C281.975 334.273 281.219 334.12 280.535 333.813C279.851 333.51 279.278 333.04 278.816 332.408H278.674C278.769 333.148 278.816 333.852 278.816 334.516V339.744H276.889V321.333H278.457L278.721 323.071H278.816C279.309 322.378 279.884 321.877 280.541 321.566C281.2 321.255 281.953 321.1 282.8 321.102C284.489 321.102 285.788 321.679 286.703 322.829C287.618 323.981 288.075 325.597 288.077 327.678C288.077 329.764 287.611 331.384 286.68 332.54C285.749 333.696 284.456 334.273 282.8 334.273V334.273ZM282.525 322.739C281.227 322.739 280.288 323.099 279.71 323.817C279.127 324.536 278.83 325.679 278.816 327.246V327.678C278.816 329.463 279.113 330.741 279.71 331.511C280.304 332.276 281.26 332.661 282.573 332.659C283.669 332.659 284.527 332.216 285.151 331.33C285.771 330.44 286.082 329.214 286.082 327.654C286.082 326.069 285.771 324.853 285.151 324.008C284.527 323.163 283.651 322.739 282.525 322.739V322.739ZM297.237 321.102C297.8 321.102 298.307 321.148 298.756 321.243L298.49 323.029C297.963 322.912 297.501 322.854 297.099 322.854C296.069 322.854 295.189 323.272 294.459 324.107C293.73 324.94 293.367 325.978 293.367 327.221V334.04H291.438V321.333H293.029L293.248 323.689H293.342C293.814 322.864 294.381 322.224 295.047 321.776C295.71 321.327 296.438 321.102 297.237 321.102V321.102ZM309.26 332.544V334.04H300.042V332.731L306.975 322.829H300.469V321.333H309.083V322.829L302.245 332.544H309.26ZM315.343 334.112L310.218 321.333H312.285L315.067 328.579C315.679 330.234 316.056 331.429 316.201 332.159H316.297C316.396 331.767 316.605 331.093 316.928 330.137C317.249 329.185 318.298 326.25 320.077 321.333H322.138L316.677 335.802C316.135 337.234 315.504 338.248 314.781 338.846C314.059 339.445 313.173 339.744 312.124 339.744C311.535 339.744 310.954 339.68 310.381 339.55V338.005C310.808 338.096 311.284 338.143 311.809 338.143C313.13 338.143 314.07 337.403 314.636 335.921L315.343 334.112ZM330.206 321.333H334.603V322.555L332.248 322.829C332.464 323.101 332.656 323.456 332.827 323.893C332.998 324.326 333.084 324.82 333.084 325.37C333.084 326.613 332.658 327.606 331.805 328.348C330.956 329.092 329.791 329.463 328.306 329.463C327.926 329.463 327.57 329.432 327.238 329.368C326.422 329.801 326.012 330.347 326.012 331.002C326.012 331.349 326.154 331.608 326.439 331.775C326.725 331.94 327.215 332.022 327.912 332.023H330.164C331.537 332.023 332.594 332.313 333.33 332.892C334.068 333.471 334.438 334.314 334.436 335.423C334.436 336.83 333.872 337.9 332.746 338.636C331.619 339.375 329.973 339.744 327.807 339.744C326.144 339.744 324.864 339.435 323.966 338.817C323.065 338.199 322.612 337.325 322.612 336.196C322.612 335.423 322.859 334.757 323.353 334.193C323.85 333.63 324.545 333.247 325.443 333.043C325.116 332.898 324.845 332.67 324.625 332.36C324.404 332.049 324.293 331.689 324.293 331.281C324.293 330.815 324.417 330.411 324.664 330.067C324.911 329.719 325.301 329.381 325.837 329.055C325.179 328.785 324.644 328.327 324.233 327.678C323.819 327.029 323.611 326.287 323.609 325.451C323.609 324.058 324.027 322.986 324.864 322.23C325.697 321.477 326.879 321.1 328.411 321.102C329.076 321.102 329.674 321.179 330.206 321.333V321.333ZM324.47 336.173C324.47 336.863 324.759 337.385 325.338 337.741C325.917 338.096 326.748 338.273 327.83 338.271C329.445 338.271 330.64 338.03 331.417 337.55C332.196 337.067 332.584 336.41 332.584 335.584C332.584 334.895 332.373 334.417 331.949 334.151C331.522 333.885 330.721 333.753 329.546 333.751H327.238C326.364 333.751 325.686 333.96 325.2 334.378C324.712 334.796 324.47 335.394 324.47 336.173V336.173ZM325.515 325.403C325.515 326.293 325.765 326.965 326.265 327.421C326.768 327.878 327.467 328.105 328.363 328.105C330.239 328.105 331.178 327.194 331.18 325.37C331.18 323.46 330.23 322.506 328.33 322.506C327.424 322.506 326.727 322.749 326.241 323.239C325.758 323.722 325.515 324.445 325.515 325.403V325.403ZM348.175 327.678C348.175 329.749 347.654 331.365 346.613 332.527C345.567 333.692 344.126 334.273 342.286 334.273C341.15 334.273 340.141 334.005 339.261 333.471C338.381 332.939 337.701 332.175 337.22 331.176C336.742 330.18 336.503 329.012 336.503 327.678C336.503 325.605 337.019 323.99 338.055 322.834C339.09 321.679 340.528 321.102 342.366 321.102C344.145 321.102 345.558 321.694 346.607 322.877C347.652 324.058 348.175 325.659 348.175 327.678ZM338.496 327.678C338.496 329.298 338.82 330.535 339.469 331.386C340.118 332.235 341.072 332.659 342.333 332.659C343.594 332.659 344.549 332.235 345.202 331.39C345.857 330.545 346.185 329.308 346.185 327.678C346.185 326.059 345.857 324.834 345.202 323.998C344.549 323.159 343.586 322.739 342.309 322.739C341.049 322.739 340.101 323.153 339.46 323.979C338.816 324.804 338.496 326.038 338.496 327.678ZM360.454 334.04L360.198 332.336H360.093C359.203 333.628 357.874 334.273 356.105 334.273C354.442 334.273 353.152 333.706 352.229 332.569C351.304 331.433 350.842 329.817 350.842 327.72C350.842 325.628 351.306 324.002 352.235 322.844C353.161 321.682 354.451 321.102 356.105 321.102C357.83 321.102 359.151 321.729 360.07 322.982H360.221L360.14 322.065L360.093 321.172V316.002H362.02V334.04H360.454ZM356.351 332.659C357.665 332.659 358.617 332.303 359.205 331.59C359.798 330.875 360.093 329.721 360.093 328.128V327.72C360.093 325.921 359.794 324.639 359.196 323.87C358.597 323.101 357.641 322.716 356.328 322.716C355.197 322.716 354.333 323.155 353.735 324.031C353.136 324.907 352.837 326.147 352.837 327.744C352.837 329.368 353.134 330.594 353.731 331.419C354.325 332.245 355.199 332.659 356.351 332.659V332.659ZM369.206 334.112L364.081 321.333H366.147L368.93 328.579C369.539 330.234 369.917 331.429 370.065 332.159H370.154C370.255 331.767 370.467 331.093 370.788 330.137C371.11 329.185 372.159 326.25 373.935 321.333H376L370.539 335.802C369.997 337.234 369.366 338.248 368.645 338.846C367.922 339.445 367.034 339.744 365.981 339.744C365.397 339.744 364.816 339.68 364.243 339.55V338.005C364.67 338.096 365.146 338.143 365.673 338.143C366.994 338.143 367.934 337.403 368.497 335.921L369.206 334.112Z" fill="#AA9582"/>
</g>
</svg>
